<?xml version="1.0" encoding="UTF-8"?>
<svg width="36px" height="36px" viewBox="0 0 36 36" version="1.1" xmlns="http://www.w3.org/2000/svg" xmlns:xlink="http://www.w3.org/1999/xlink">
    <title>ic-trash</title>
    <g id="Page-1" stroke="none" stroke-width="1" fill="none" fill-rule="evenodd">
        <g id="ic-trash">
            <rect id="Rectangle" x="0" y="0" width="36" height="36"></rect>
            <path d="M24.4299546,14 L24.4299546,27.7777604 C24.4299546,28.9356716 23.5644273,29.8941212 22.4711154,29.9918032 L22.286897,30 L13.7147167,30 C12.5980638,30 11.6737652,29.1024931 11.5795639,27.9687853 L11.5716591,27.7777604 L11.5716591,14 L24.4299546,14 Z M15.9380592,6 L20.0619402,6 C21.270336,6 22.2699956,6.97393911 22.3669406,8.2022006 L22.3746448,8.3981452 L22.3746448,10.1342326 L25.8436741,10.1342326 C26.4841103,10.1342326 26.9274745,10.5429394 26.9918948,11.1716748 L27,11.3333333 L27,12.6666667 L9,12.6666667 L9,11.3333333 C9,10.6692368 9.39409921,10.2094936 10.000427,10.1426934 L10.1563251,10.1342888 L13.6253547,10.1342888 L13.6253547,8.3981452 C13.6253547,7.14510632 14.5645945,6.10851527 15.7490957,6.00798876 L15.9380592,6 L20.0619402,6 L15.9380592,6 Z M20.0619402,8.3981452 L15.9380592,8.3981452 L15.9380592,10.1342326 L20.0619402,10.1342326 L20.0619402,8.3981452 Z" id="im-ic-trash" fill="#000000" fill-rule="nonzero"></path>
        </g>
    </g>
</svg>